<?xml version="1.0" encoding="UTF-8"?>
<svg id="Layer_1" data-name="Layer 1" xmlns="http://www.w3.org/2000/svg" viewBox="0 0 1235.08 1119.61">
  <defs>
    <style>
      .cls-1 {
        fill: #fff;
      }

      .cls-2 {
        fill: #f5d72b;
      }

      .cls-3 {
        fill: #2972b0;
      }

      .cls-4 {
        fill: #3ab549;
      }
    </style>
  </defs>
  <path class="cls-4" d="M1162.23,99.4l-680.08-2.4c-44.51-.16-64.43,52.22-36.91,97.05l473.49,771.4c30.69,50,94.13,50.22,107.52,.38l206.6-769c12.01-44.69-26.1-97.27-70.61-97.43Z"/>
  <path class="cls-2" d="M752.93,1002.27l-680.08-2.37c-44.51-.15-82.62-52.74-70.61-97.43L208.8,133.46c13.39-49.85,76.83-49.63,107.52,.37l473.52,771.38c27.52,44.83,7.6,97.21-36.91,97.05Z"/>
  <path class="cls-3" d="M1048.81,215.93l-680.08-2.4c-44.51-.16-64.43,52.22-36.91,97.05l473.49,771.4c30.69,50,94.13,50.22,107.52,.38l206.6-769c12.01-44.69-26.1-97.27-70.61-97.43Z"/>
  <path class="cls-3" d="M878.12,906.07l-680.08-2.37c-44.51-.15-82.62-52.74-70.61-97.43L333.99,37.26c13.39-49.85,76.83-49.63,107.52,.37l473.52,771.38c27.52,44.83,7.6,97.21-36.91,97.05Z"/>
  <path class="cls-1" d="M658.6,694.2l-53.07-87.2-32.59,30.83v47.79c0,11.6-3.08,20.55-9.25,26.87-6.02,6.17-12.99,9.25-20.92,9.25-9.25,0-16.52-3.08-21.8-9.25-5.29-6.17-7.93-15.27-7.93-27.31V428.84c0-13.36,2.57-23.49,7.71-30.39,5.14-7.05,12.48-10.57,22.02-10.57s16.59,3.16,22.02,9.47c5.43,6.31,8.15,15.64,8.15,27.97v145.78l67.61-70.91c8.37-8.81,14.75-14.83,19.16-18.06,4.4-3.23,9.76-4.84,16.08-4.84,7.49,0,13.73,2.42,18.72,7.27,4.99,4.7,7.49,10.64,7.49,17.84,0,8.81-8.15,20.55-24.44,35.23l-31.93,29.29,61.66,96.89c4.55,7.19,7.78,12.7,9.69,16.52,2.06,3.67,3.08,7.19,3.08,10.57,0,9.54-2.64,17.1-7.93,22.68-5.14,5.43-11.96,8.15-20.48,8.15-7.34,0-12.99-1.98-16.96-5.95-3.96-3.96-9.32-11.16-16.08-21.58Z"/>
</svg>