<?xml version="1.0" encoding="UTF-8"?>
<svg id="Layer_1" data-name="Layer 1" xmlns="http://www.w3.org/2000/svg" viewBox="0 0 1235.08 1163.82">
  <defs>
    <style>
      .cls-1 {
        fill: #fff;
      }

      .cls-2 {
        fill: #36becf;
      }

      .cls-3 {
        fill: #f5bc3d;
      }

      .cls-4 {
        fill: #2972b0;
      }
    </style>
  </defs>
  <path class="cls-3" d="M1162.23,121.51l-680.08-2.4c-44.51-.16-64.43,52.22-36.91,97.05l473.49,771.4c30.69,50,94.13,50.22,107.52,.38l206.6-769c12.01-44.69-26.1-97.27-70.61-97.43Z"/>
  <path class="cls-2" d="M752.93,1024.38l-680.08-2.37c-44.51-.15-82.62-52.74-70.61-97.43L208.8,155.57c13.39-49.85,76.83-49.63,107.52,.37l473.52,771.38c27.52,44.83,7.6,97.21-36.91,97.05Z"/>
  <path class="cls-4" d="M899.47,906.07l-680.08-2.37c-44.51-.15-82.62-52.74-70.61-97.43L355.33,37.26c13.39-49.85,76.83-49.63,107.52,.37l473.52,771.38c27.52,44.83,7.6,97.21-36.91,97.05Z"/>
  <path class="cls-4" d="M1011.91,260.14l-680.08-2.4c-44.51-.16-64.43,52.22-36.91,97.05l473.49,771.4c30.69,50,94.13,50.22,107.52,.38l206.6-769c12.01-44.69-26.1-97.27-70.61-97.43Z"/>
  <path class="cls-1" d="M661.24,725.14l-56.4-92.73-34.64,32.78v50.81c0,12.33-3.28,21.86-9.83,28.57-6.4,6.56-13.81,9.84-22.23,9.84-9.83,0-17.55-3.28-23.17-9.84-5.62-6.56-8.43-16.24-8.43-29.04V442.97c0-14.21,2.73-24.98,8.19-32.32,5.46-7.49,13.26-11.24,23.4-11.24s17.63,3.36,23.4,10.07c5.77,6.71,8.66,16.63,8.66,29.74v155.02l71.85-75.4c8.89-9.37,15.68-15.77,20.36-19.2,4.68-3.43,10.38-5.15,17.09-5.15,7.96,0,14.59,2.58,19.89,7.73,5.3,5,7.96,11.32,7.96,18.97,0,9.37-8.66,21.86-25.98,37.47l-33.94,31.14,65.53,103.03c4.84,7.65,8.27,13.5,10.3,17.56,2.18,3.9,3.28,7.65,3.28,11.24,0,10.15-2.81,18.19-8.43,24.12-5.46,5.78-12.72,8.66-21.77,8.66-7.8,0-13.81-2.11-18.02-6.32-4.21-4.22-9.91-11.86-17.09-22.95Z"/>
</svg>